<svg width="198" height="50" fill="none" xmlns="http://www.w3.org/2000/svg"><path d="M.521 20.027V.37H5.02v19.657H.521Zm4.002-4.496-.208-5.244L13.679.37h5.042L10.3 9.5l-2.569 2.694-3.209 3.338Zm9.396 4.496-6.971-8.533 2.97-3.258 9.29 11.791h-5.29ZM30.724 20.366a11.705 11.705 0 0 1-4.274-.805 10.21 10.21 0 0 1-3.409-2.13 9.654 9.654 0 0 1-2.249-3.218 10.747 10.747 0 0 1 0-8.1 9.603 9.603 0 0 1 2.25-3.217A10.22 10.22 0 0 1 26.433.765c1.36-.52 2.804-.779 4.258-.764a11.768 11.768 0 0 1 4.266.748 10.18 10.18 0 0 1 3.361 2.131 9.653 9.653 0 0 1 2.249 3.217 10.811 10.811 0 0 1 0 8.124 9.571 9.571 0 0 1-2.249 3.217 10.054 10.054 0 0 1-3.393 2.116c-1.34.527-2.764.802-4.202.812Zm0-3.853a6.224 6.224 0 0 0 2.401-.458 5.84 5.84 0 0 0 1.945-1.32 6.036 6.036 0 0 0 1.256-1.994 7.192 7.192 0 0 0 0-5.083 5.986 5.986 0 0 0-3.201-3.314 6.223 6.223 0 0 0-2.4-.458 6.32 6.32 0 0 0-2.402.458c-.73.302-1.393.75-1.945 1.32a6.123 6.123 0 0 0-1.28 1.994 7.192 7.192 0 0 0 0 5.083c.293.742.728 1.42 1.28 1.995.55.57 1.213 1.02 1.945 1.319.74.313 1.534.482 2.337.498l.064-.04ZM44.772 20.029V.37h8.467c1.556-.024 3.1.283 4.53.901a6.657 6.657 0 0 1 2.929 2.413 6.845 6.845 0 0 1 1.032 3.789 6.806 6.806 0 0 1-1.032 3.804 6.49 6.49 0 0 1-2.93 2.413c-1.44.573-2.98.847-4.53.804H47.26l2.065-1.962v7.472l-4.553.024Zm4.553-6.966-2.065-2.139h5.73a4.785 4.785 0 0 0 3.13-.893 3.145 3.145 0 0 0 1.056-2.533 3.101 3.101 0 0 0-1.056-2.51 4.784 4.784 0 0 0-3.13-.885h-5.73l2.065-2.163v11.123Zm7.907 6.966-4.898-7.134h4.858l4.922 7.134h-4.882ZM74.806 20.366a11.705 11.705 0 0 1-4.274-.805 10.21 10.21 0 0 1-3.409-2.13 9.654 9.654 0 0 1-2.249-3.218 10.65 10.65 0 0 1 0-8.1 9.605 9.605 0 0 1 2.25-3.217A10.22 10.22 0 0 1 70.515.765c1.36-.52 2.804-.779 4.258-.764a11.768 11.768 0 0 1 4.266.748c1.259.48 2.412 1.204 3.393 2.131a9.65 9.65 0 0 1 2.249 3.217 10.811 10.811 0 0 1 0 8.124 9.571 9.571 0 0 1-2.249 3.217 10.132 10.132 0 0 1-3.393 2.116 11.69 11.69 0 0 1-4.234.812Zm-.064-3.813a6.222 6.222 0 0 0 2.401-.458 5.841 5.841 0 0 0 1.945-1.32c.56-.57 1-1.249 1.296-1.994a7.191 7.191 0 0 0 0-5.083 5.986 5.986 0 0 0-3.241-3.314 6.223 6.223 0 0 0-2.4-.458 6.32 6.32 0 0 0-2.402.458c-.73.302-1.392.751-1.945 1.32a6.276 6.276 0 0 0-1.256 1.954 7.273 7.273 0 0 0 0 5.083 6.277 6.277 0 0 0 1.288 1.995 5.68 5.68 0 0 0 1.913 1.319c.76.321 1.576.49 2.401.498ZM95.343 20.367c-1.526.02-3.046-.18-4.514-.595a10.38 10.38 0 0 1-3.481-1.609l1.536-3.426c.904.643 1.903 1.14 2.961 1.472 1.127.381 2.308.577 3.498.579.73.02 1.46-.075 2.16-.282a2.696 2.696 0 0 0 1.217-.74c.26-.3.4-.687.392-1.086a1.486 1.486 0 0 0-.616-1.246 4.833 4.833 0 0 0-1.6-.756 33.138 33.138 0 0 0-2.225-.563 26.6 26.6 0 0 1-2.401-.652 9.719 9.719 0 0 1-2.233-1.005 4.767 4.767 0 0 1-1.6-1.657 5.04 5.04 0 0 1-.601-2.574c-.01-1.09.3-2.158.888-3.072a6.168 6.168 0 0 1 2.73-2.22A11.21 11.21 0 0 1 96.046.13c1.228.002 2.45.154 3.641.45 1.077.242 2.11.646 3.066 1.2l-1.425 3.426a11.46 11.46 0 0 0-2.705-1.143 10.459 10.459 0 0 0-2.673-.378 6.285 6.285 0 0 0-2.145.298 2.48 2.48 0 0 0-1.192.804c-.245.324-.377.72-.377 1.126a1.527 1.527 0 0 0 .617 1.263c.48.351 1.024.605 1.6.748.673.177 1.417.354 2.241.531.812.177 1.613.397 2.401.66.785.25 1.539.587 2.249 1.005a4.56 4.56 0 0 1 1.712 1.765c.399.734.591 1.565.553 2.401a5.362 5.362 0 0 1-.912 3.033 6.336 6.336 0 0 1-2.745 2.22 11.09 11.09 0 0 1-4.61.828ZM110.756 20.027V4.078h-6.25V.37h17.038v3.708h-6.258v15.95h-4.53ZM128.474 16.376h10.644v3.651h-15.141V.37h14.789v3.652h-10.292v12.354Zm-.336-8.116h9.412v3.572h-9.412V8.26ZM142.719 20.027V.37h4.554v15.95h9.747v3.707h-14.301ZM164.088 16.376h10.644v3.651h-15.158V.37h14.782v3.652h-10.268v12.354Zm-.336-8.116h9.427v3.572h-9.427V8.26ZM184.208 20.027 175.74.37h4.914l7.379 17.413h-2.849L192.675.37h4.498l-8.5 19.657h-4.465ZM7.46 49.78a9.873 9.873 0 0 1-3.81-.7 6.635 6.635 0 0 1-2.673-1.906A4.324 4.324 0 0 1 0 44.39c-.013-.92.21-1.83.648-2.638a6.638 6.638 0 0 1 2.065-2.188 20.595 20.595 0 0 1 3.577-1.994c.842-.38 1.66-.813 2.449-1.295a4.426 4.426 0 0 0 1.176-1.07c.23-.306.357-.678.36-1.062a1.535 1.535 0 0 0-.488-1.166 2.01 2.01 0 0 0-1.432-.467 2.258 2.258 0 0 0-1.6.507 1.69 1.69 0 0 0-.561 1.295c.006.278.069.552.184.804.167.339.382.65.64.925.312.346.753.805 1.329 1.36l10.372 9.603-2.345 2.775L4.978 39.139a12.319 12.319 0 0 1-1.536-1.673 6.255 6.255 0 0 1-.88-1.552 4.428 4.428 0 0 1 .472-4.078 5.005 5.005 0 0 1 2.153-1.705 7.849 7.849 0 0 1 3.2-.604 7.434 7.434 0 0 1 2.978.547c.781.33 1.457.87 1.953 1.56.488.708.738 1.553.712 2.414a4.294 4.294 0 0 1-.616 2.252 6.372 6.372 0 0 1-1.953 1.97 22.2 22.2 0 0 1-3.385 1.818c-.783.35-1.53.772-2.233 1.263a4.503 4.503 0 0 0-1.2 1.222c-.23.418-.343.89-.329 1.368.001.448.15.884.424 1.238.304.39.712.686 1.177.853a5.203 5.203 0 0 0 1.873.297 6.153 6.153 0 0 0 3.113-.804 6.884 6.884 0 0 0 2.4-2.413 10.584 10.584 0 0 0 1.417-3.772l3.49 1.062a12.284 12.284 0 0 1-2.081 4.97 10.42 10.42 0 0 1-3.794 3.285A10.362 10.362 0 0 1 7.45 49.78h.008ZM27.436 49.442v-19.65h8.467c1.55-.039 3.091.252 4.522.853a6.69 6.69 0 0 1 2.937 2.461 7.492 7.492 0 0 1 0 7.593 6.833 6.833 0 0 1-2.937 2.413 10.68 10.68 0 0 1-4.522.877h-5.979l2.073-2.051v7.464l-4.561.04Zm4.553-6.957-2.065-2.164h5.73a4.705 4.705 0 0 0 3.13-.9 3.128 3.128 0 0 0 1.064-2.526 3.094 3.094 0 0 0-1.064-2.51 4.785 4.785 0 0 0-3.13-.884h-5.73l2.073-2.164-.008 11.148ZM46.516 49.442l8.691-19.649h4.466l8.803 19.65h-4.778l-7.203-17.35h1.817l-7.203 17.35h-4.593Zm4.385-4.206 1.145-3.459h10.116l1.168 3.459H50.901ZM70.389 49.442v-19.65h8.467c1.55-.039 3.091.252 4.522.853a6.69 6.69 0 0 1 2.937 2.461 7.492 7.492 0 0 1 0 7.593 6.538 6.538 0 0 1-2.937 2.413 11.22 11.22 0 0 1-4.522.804h-5.978l2.064-1.962v7.464l-4.553.024Zm4.553-6.957-2.064-2.164H78.6a4.705 4.705 0 0 0 3.13-.9 3.104 3.104 0 0 0 1.063-2.526 3.071 3.071 0 0 0-1.064-2.51 4.785 4.785 0 0 0-3.13-.884h-5.721l2.064-2.164v11.148Zm7.908 6.957-4.906-7.15h4.865l4.914 7.126-4.873.024ZM98.35 49.442V33.501h-6.258v-3.708h17.062v3.708h-6.258v15.941H98.35ZM113.211 49.442V29.793h3.745l11.541 14.148h-1.817V29.793h4.466v19.65h-3.738l-11.54-14.149h1.817v14.148h-4.474ZM140.681 45.799h10.644v3.643h-15.141V29.793h14.773v3.651h-10.276V45.8Zm-.312-8.116h9.412v3.563h-9.412v-3.563ZM156.654 49.442v-19.65h8.468c1.55-.04 3.091.251 4.521.853a6.596 6.596 0 0 1 2.937 2.461 7.492 7.492 0 0 1 0 7.593 6.454 6.454 0 0 1-2.937 2.413 11.154 11.154 0 0 1-4.521.804h-5.979l2.033-1.938v7.464h-4.522Zm4.522-6.957-2.065-2.164h5.73a4.722 4.722 0 0 0 3.13-.9 3.125 3.125 0 0 0 1.056-2.526 3.1 3.1 0 0 0-1.056-2.51 4.786 4.786 0 0 0-3.13-.884h-5.73l2.065-2.164v11.148Zm7.907 6.957-4.882-7.15h4.858l4.922 7.15h-4.898ZM186.784 49.78a16.114 16.114 0 0 1-4.514-.628 10.668 10.668 0 0 1-3.481-1.608l1.537-3.419a11.484 11.484 0 0 0 6.458 2.003 6.9 6.9 0 0 0 2.161-.273 2.725 2.725 0 0 0 1.216-.748c.259-.3.398-.683.393-1.078a1.506 1.506 0 0 0-.617-1.255 4.98 4.98 0 0 0-1.6-.756 38.72 38.72 0 0 0-2.217-.563c-.8-.177-1.601-.394-2.401-.643a9.636 9.636 0 0 1-2.241-1.014 4.708 4.708 0 0 1-1.601-1.657 5.016 5.016 0 0 1-.6-2.566 5.515 5.515 0 0 1 .897-3.072 6.04 6.04 0 0 1 2.721-2.22 11.102 11.102 0 0 1 4.593-.804 15.14 15.14 0 0 1 3.65.45c1.107.258 2.167.692 3.137 1.287l-1.425 3.426a11.106 11.106 0 0 0-2.705-1.134 10.051 10.051 0 0 0-2.681-.378 6.526 6.526 0 0 0-2.152.29 2.55 2.55 0 0 0-1.193.804 1.848 1.848 0 0 0-.376 1.118 1.546 1.546 0 0 0 .616 1.271c.481.349 1.025.6 1.601.74.667.177 1.411.354 2.233.53.8.186 1.6.403 2.401.66.768.25 1.506.584 2.2.998a4.809 4.809 0 0 1 1.641 1.608c.437.773.653 1.653.624 2.542a5.434 5.434 0 0 1-.904 3.032 6.33 6.33 0 0 1-2.753 2.212 11.09 11.09 0 0 1-4.618.844Z" fill="#fff"/></svg>